<svg xmlns="http://www.w3.org/2000/svg" width="24" height="24"><g transform="translate(0 -1028.362)" style="display:inline"><path d="M1.081 1040.362c0-6.03 4.889-10.919 10.919-10.919s10.919 4.889 10.919 10.919-4.889 10.919-10.919 10.919-10.918-4.889-10.918-10.919z" style="fill:#2ad4ff;fill-opacity:1;stroke:#00aad4;stroke-width:2.16264367;stroke-linecap:butt;stroke-linejoin:round;stroke-miterlimit:4"/><path style="fill:#fff;stroke-width:.2030842" d="M18.453 1037.403v5.911a3.463 3.463 0 0 1-3.47 3.471H9.07a3.463 3.463 0 0 1-3.47-3.47v-5.912a3.463 3.463 0 0 1 3.47-3.471h5.912a3.463 3.463 0 0 1 3.471 3.47z"/><path d="M17.004 1038.069v4.58a2.682 2.682 0 0 1-2.687 2.687H9.74a2.682 2.682 0 0 1-2.687-2.688v-4.579a2.682 2.682 0 0 1 2.687-2.687h4.577a2.682 2.682 0 0 1 2.688 2.687z" style="stroke-width:.2030842"/><path d="M13.425 1036.385h1.317a.678.678 0 0 1 .679.68v.19a.678.678 0 0 1-.68.68h-1.316a.678.678 0 0 1-.68-.68v-.19a.678.678 0 0 1 .68-.68z" style="stroke-width:.2030842"/><rect style="display:inline;fill:#fff;fill-opacity:1;stroke:none;stroke-width:.19969946" width="2.676" height="1.549" x="8.745" y="1042.386" ry=".68" rx=".68"/><path style="fill:#000;fill-opacity:1;stroke-width:.2030842" d="M18.16 1031.994c-.415-.038-.708.26-.75.691v1.779c-.01.241-.14.421-.281.561l-1.114 1.052.374.405 1.114-1.082c.294-.257.424-.547.436-.936v-1.778c.025-.15.139-.194.25-.156l3.951 1.41a11.508 11.508 0 0 0-.512-.74l-3.283-1.17a.91.91 0 0 0-.185-.036zm-12.329 0a.913.913 0 0 0-.185.037l-3.283 1.169a11.502 11.502 0 0 0-.512.74l3.951-1.41c.112-.038.225.01.25.156v1.778c.012.39.143.679.436.936l1.114 1.082.375-.405-1.114-1.051c-.142-.14-.271-.32-.28-.562v-1.779c-.043-.431-.336-.728-.752-.691zm1.775 12.24-1.113 1.082a1.204 1.204 0 0 0-.437.936v1.778c-.025.15-.138.194-.25.156l-3.95-1.41a11.51 11.51 0 0 0 .511.74l3.283 1.169c.511.156.888-.161.936-.654v-1.779c.01-.242.14-.421.281-.562l1.114-1.05zm8.78.015-.374.405 1.113 1.052c.143.14.272.32.281.561v1.779c.049.493.425.81.937.654l3.282-1.168a11.502 11.502 0 0 0 .512-.742l-3.95 1.41c-.113.039-.225-.01-.25-.154v-1.78a1.206 1.206 0 0 0-.437-.935z"/><path style="display:inline;fill:#fce94f;fill-opacity:1;fill-rule:evenodd;stroke:#927700;stroke-width:.99999994;stroke-linecap:butt;stroke-linejoin:round;stroke-miterlimit:4;stroke-dasharray:none;stroke-opacity:1;enable-background:new" d="m22.81 1029.747-9.817-.261 3.118 3.117-3.651 3.651 3.838 3.839 3.651-3.651 3.118 3.117-.257-9.813z"/></g></svg>