<?xml version="1.0" encoding="UTF-8" standalone="no"?>
<svg
   xmlns:dc="http://purl.org/dc/elements/1.1/"
   xmlns:cc="http://creativecommons.org/ns#"
   xmlns:rdf="http://www.w3.org/1999/02/22-rdf-syntax-ns#"
   xmlns:svg="http://www.w3.org/2000/svg"
   xmlns="http://www.w3.org/2000/svg"
   xmlns:sodipodi="http://sodipodi.sourceforge.net/DTD/sodipodi-0.dtd"
   xmlns:inkscape="http://www.inkscape.org/namespaces/inkscape"
   width="24"
   height="24"
   viewBox="0 0 24 24"
   version="1.1"
   id="svg6"
   sodipodi:docname="settings.svg"
   inkscape:version="0.92.4 (5da689c313, 2019-01-14)">
  <metadata
     id="metadata12">
    <rdf:RDF>
      <cc:Work
         rdf:about="">
        <dc:format>image/svg+xml</dc:format>
        <dc:type
           rdf:resource="http://purl.org/dc/dcmitype/StillImage" />
      </cc:Work>
    </rdf:RDF>
  </metadata>
  <defs
     id="defs10" />
  <sodipodi:namedview
     pagecolor="#ffffff"
     bordercolor="#666666"
     borderopacity="1"
     objecttolerance="10"
     gridtolerance="10"
     guidetolerance="10"
     inkscape:pageopacity="0"
     inkscape:pageshadow="2"
     inkscape:window-width="1185"
     inkscape:window-height="733"
     id="namedview8"
     showgrid="false"
     inkscape:zoom="2.4583333"
     inkscape:cx="-61.563417"
     inkscape:cy="-23.540466"
     inkscape:window-x="0"
     inkscape:window-y="34"
     inkscape:window-maximized="0"
     inkscape:current-layer="svg6" />
  <path
     d="M0 0h24v24H0z"
     fill="none"
     id="path2" />
  <path
     d="m 19.995105,13.054291 c 0.04304,-0.344258 0.0753,-0.688516 0.0753,-1.05429 0,-0.365774 -0.03228,-0.710032 -0.0753,-1.05429 L 22.265056,9.1706301 C 22.469459,9.0092591 22.52325,8.7187915 22.394153,8.4821142 L 20.24254,4.7598252 C 20.113444,4.5231479 19.822976,4.4370835 19.586299,4.5231479 l -2.678757,1.075806 C 16.348122,5.1686315 15.745671,4.8136156 15.089429,4.544664 L 14.680623,1.693778 C 14.648349,1.4355846 14.42243,1.2419395 14.153478,1.2419395 H 9.8502545 c -0.268951,0 -0.49487,0.1936451 -0.527145,0.4518385 L 8.9143034,4.544664 C 8.2580616,4.8136156 7.6556102,5.1793896 7.0961911,5.5989539 l -2.678757,-1.075806 c -0.2474355,-0.096823 -0.527145,0 -0.6562417,0.2366773 L 1.6095802,8.4821142 C 1.4697254,8.7187915 1.5342734,9.0092591 1.7386769,9.1706301 l 2.2699508,1.7750809 c -0.043032,0.344258 -0.075307,0.699274 -0.075307,1.05429 0,0.355016 0.032274,0.710032 0.075307,1.05429 L 1.7386769,14.82937 c -0.2044031,0.161371 -0.2581934,0.451839 -0.1290967,0.688517 l 2.1516122,3.722288 c 0.1290967,0.236677 0.4195642,0.322742 0.6562417,0.236677 l 2.678757,-1.075806 c 0.5594191,0.430323 1.1618705,0.785339 1.8181123,1.05429 l 0.4088061,2.850887 c 0.03228,0.258193 0.258194,0.451838 0.527145,0.451838 h 4.3032235 c 0.268952,0 0.494871,-0.193645 0.527145,-0.451838 l 0.408806,-2.850887 c 0.656242,-0.268951 1.258693,-0.634725 1.818113,-1.05429 l 2.678757,1.075806 c 0.247435,0.09682 0.527145,0 0.656241,-0.236677 l 2.151613,-3.722288 c 0.129097,-0.236678 0.0753,-0.527146 -0.129097,-0.688517 z m -7.993239,2.711031 c -2.0763055,0 -3.7653205,-1.689016 -3.7653205,-3.765321 0,-2.0763067 1.689015,-3.7653222 3.7653205,-3.7653222 2.076306,0 3.765321,1.6890155 3.765321,3.7653222 0,2.076305 -1.689015,3.765321 -3.765321,3.765321 z"
     id="path4"
     style="fill:#729fcf;fill-opacity:1;stroke:#000000;stroke-width:1.07580602;stroke-opacity:1"
     inkscape:connector-curvature="0" />
</svg>
