<?xml version="1.0" encoding="UTF-8" standalone="no"?>
<!-- Created with Inkscape (http://www.inkscape.org/) -->

<svg
   xmlns:dc="http://purl.org/dc/elements/1.1/"
   xmlns:cc="http://creativecommons.org/ns#"
   xmlns:rdf="http://www.w3.org/1999/02/22-rdf-syntax-ns#"
   xmlns:svg="http://www.w3.org/2000/svg"
   xmlns="http://www.w3.org/2000/svg"
   xmlns:sodipodi="http://sodipodi.sourceforge.net/DTD/sodipodi-0.dtd"
   xmlns:inkscape="http://www.inkscape.org/namespaces/inkscape"
   width="240"
   height="44"
   id="svg4155"
   version="1.1"
   inkscape:version="0.92.4 (5da689c313, 2019-01-14)"
   sodipodi:docname="text_logo.svg">
  <defs
     id="defs4157" />
  <sodipodi:namedview
     id="base"
     pagecolor="#ffffff"
     bordercolor="#666666"
     borderopacity="1.0"
     inkscape:pageopacity="0.0"
     inkscape:pageshadow="2"
     inkscape:zoom="1.4945099"
     inkscape:cx="125.32103"
     inkscape:cy="-68.199741"
     inkscape:document-units="px"
     inkscape:current-layer="layer1"
     showgrid="false"
     showguides="true"
     inkscape:guide-bbox="true"
     inkscape:window-width="1144"
     inkscape:window-height="781"
     inkscape:window-x="774"
     inkscape:window-y="54"
     inkscape:window-maximized="0" />
  <metadata
     id="metadata4160">
    <rdf:RDF>
      <cc:Work
         rdf:about="">
        <dc:format>image/svg+xml</dc:format>
        <dc:type
           rdf:resource="http://purl.org/dc/dcmitype/StillImage" />
        <dc:title></dc:title>
      </cc:Work>
    </rdf:RDF>
  </metadata>
  <g
     inkscape:label="Layer 1"
     inkscape:groupmode="layer"
     id="layer1"
     transform="translate(0,-1008.3622)">
    <path
       inkscape:connector-curvature="0"
       id="path4610"
       style="font-style:normal;font-variant:normal;font-weight:normal;font-stretch:normal;font-size:108.83266449px;line-height:125%;font-family:MicrogrammaDEEBolExt;-inkscape-font-specification:MicrogrammaDEEBolExt;text-align:start;letter-spacing:7.22430801px;word-spacing:0px;writing-mode:lr-tb;text-anchor:start;fill:#00b8e5;fill-opacity:1;stroke:none;stroke-width:0.32777828"
       d="m 15.0498,1027.371 h 16.700541 c 0.0234,0.5749 0.03509,0.9455 0.03512,1.1116 -3.3e-5,3.4242 -0.08784,6.069 -0.263413,7.9346 -0.281007,3.0153 -1.849794,4.8425 -4.706357,5.4813 -1.475153,0.3193 -3.090766,0.511 -4.846845,0.5749 -1.86149,0.076 -4.068324,0.1151 -6.620509,0.1151 -4.530758,0 -7.7678377,-0.179 -9.7112494,-0.5367 -2.6926968,-0.4856 -4.3609927,-1.8399 -5.00489456,-4.0631 -0.31610017,-1.086 -0.49756377,-2.3318 -0.54439181,-3.7374 C 0.029267,1032.4882 -1.2685834e-6,1030.61 0,1028.6168 c -1.2685834e-6,-3.3732 0.14634058,-5.7434 0.43902563,-7.1105 0.42146331,-1.9038 1.14731787,-3.2454 2.17756787,-4.0247 0.5385339,-0.4217 1.2117061,-0.741 2.0195193,-0.9582 0.8195073,-0.23 1.9726804,-0.4153 3.4595226,-0.556 2.0956046,-0.2043 4.9287826,-0.3065 8.4995386,-0.3066 4.589262,10e-5 7.838049,0.1982 9.746373,0.5942 1.931683,0.3961 3.289737,1.0988 4.074161,2.1082 0.690698,0.9072 1.112163,2.3382 1.264393,4.293 0.03509,0.524 0.05265,1.3288 0.05269,2.4149 h -7.305388 c -0.01173,-0.7155 -0.04686,-1.201 -0.105367,-1.4566 -0.163928,-0.6515 -0.684904,-1.0413 -1.562931,-1.1691 -1.159051,-0.1661 -3.441983,-0.2491 -6.848803,-0.2491 -3.032218,0 -5.133687,0.1086 -6.3044109,0.3258 -1.1122077,0.2172 -1.7853798,0.8816 -2.0195182,1.9932 -0.1873257,0.8433 -0.2809844,2.3446 -0.2809759,4.5039 -8.5e-6,2.4786 0.099503,4.1716 0.2985378,5.0788 0.2575521,1.2139 1.0536514,1.8911 2.3882993,2.0316 0.6556009,0.064 2.6341419,0.1214 5.9356289,0.1726 3.605845,-0.026 5.929752,-0.1022 6.971729,-0.23 0.948272,-0.1662 1.492663,-0.6196 1.633177,-1.3608 0.08193,-0.4601 0.122901,-1.1627 0.122927,-2.1083 h -9.605895 v -5.2321" />
    <path
       inkscape:connector-curvature="0"
       id="path4612"
       style="font-style:normal;font-variant:normal;font-weight:normal;font-stretch:normal;font-size:108.83266449px;line-height:125%;font-family:MicrogrammaDEEBolExt;-inkscape-font-specification:MicrogrammaDEEBolExt;text-align:start;letter-spacing:7.22430801px;word-spacing:0px;writing-mode:lr-tb;text-anchor:start;fill:#00b8e5;fill-opacity:1;stroke:none;stroke-width:0.32777828"
       d="m 37.087948,1016.0442 h 7.67417 v 26.161 h -7.67417 v -26.161" />
    <path
       inkscape:connector-curvature="0"
       id="path4614"
       style="font-style:normal;font-variant:normal;font-weight:normal;font-stretch:normal;font-size:108.83266449px;line-height:125%;font-family:MicrogrammaDEEBolExt;-inkscape-font-specification:MicrogrammaDEEBolExt;text-align:start;letter-spacing:7.22430801px;word-spacing:0px;writing-mode:lr-tb;text-anchor:start;fill:#00b8e5;fill-opacity:1;stroke:none;stroke-width:0.32777828"
       d="m 49.660701,1033.5422 h 7.077095 c -0.01169,1.2905 0.228288,2.1211 0.720005,2.4916 0.257553,0.1789 0.550237,0.3004 0.878051,0.3642 0.3278,0.064 0.901458,0.1086 1.72098,0.1341 0.409746,0.013 1.75024,0.026 4.021479,0.038 3.11414,-0.013 4.917069,-0.031 5.408795,-0.058 0.924864,-0.076 1.533643,-0.2108 1.826348,-0.4024 0.409738,-0.2811 0.614616,-0.9073 0.614639,-1.8783 -2.3e-5,-0.6644 -0.128805,-1.1308 -0.386342,-1.3991 -0.351243,-0.3705 -1.18832,-0.5686 -2.511228,-0.5941 -0.913195,0 -2.82149,-0.076 -5.724897,-0.23 -2.997092,-0.1534 -4.940513,-0.2428 -5.830264,-0.2683 -2.31806,-0.076 -3.951234,-0.3706 -4.899528,-0.8817 -1.217568,-0.6516 -2.013666,-1.7632 -2.388299,-3.3348 -0.210734,-0.8687 -0.3161,-2.006 -0.3161,-3.4114 0,-2.9642 0.515124,-5.0533 1.545373,-6.2672 0.77268,-0.9198 1.943416,-1.5268 3.512206,-1.8206 1.416585,-0.2555 4.788298,-0.3833 10.115152,-0.3834 3.465359,10e-5 5.912192,0.1087 7.340512,0.3259 1.884861,0.2939 3.242914,0.8049 4.074159,1.5332 1.123872,1.0094 1.685828,2.8173 1.685862,5.4238 -3.4e-5,0.2811 -0.0059,0.7284 -0.01751,1.3416 h -7.077093 c -0.02343,-0.6261 -0.06441,-1.0605 -0.122929,-1.3033 -0.163925,-0.7154 -0.702459,-1.1179 -1.615616,-1.2074 -0.807826,-0.076 -2.774656,-0.1149 -5.900502,-0.1149 -3.090755,0 -4.922955,0.096 -5.496606,0.2874 -0.643913,0.23 -0.965866,0.8241 -0.965856,1.7824 -1e-5,0.92 0.339506,1.4822 1.01854,1.6866 0.57365,0.1661 3.155118,0.3258 7.744414,0.4791 4.156091,0.1278 6.807804,0.2875 7.955148,0.4791 1.158997,0.1917 2.078026,0.4792 2.757085,0.8626 0.690699,0.3832 1.240949,0.9263 1.650737,1.6289 0.620455,1.035 0.9307,2.7024 0.930734,5.0023 -3.4e-5,2.5682 -0.304425,4.4529 -0.913176,5.6539 -0.608809,1.1882 -1.603933,1.9996 -2.985376,2.434 -1.358078,0.4344 -5.098574,0.6516 -11.221499,0.6516 -3.722948,0 -6.409784,-0.1086 -8.060511,-0.3258 -2.013672,-0.2556 -3.459526,-0.7539 -4.337577,-1.4949 -0.948299,-0.7922 -1.51025,-1.9102 -1.685859,-3.354 -0.09366,-0.7027 -0.140491,-1.5332 -0.140491,-2.4916 v -1.3799" />
    <path
       inkscape:connector-curvature="0"
       id="path4616"
       style="font-style:normal;font-weight:normal;font-size:27.20816612px;line-height:125%;font-family:Sans;letter-spacing:7.22430801px;word-spacing:0px;fill:#555555;fill-opacity:1;stroke:none;stroke-width:0.32777828"
       d="m 100.13017,1015.6608 c 5.03413,10e-5 8.52292,0.1406 10.46637,0.4217 2.79802,0.4089 4.51316,1.859 5.14538,4.3505 0.43314,1.7122 0.64972,4.6125 0.64976,8.7012 -4e-5,4.0758 -0.21662,6.9699 -0.64976,8.682 -0.63222,2.4915 -2.34736,3.9418 -5.14538,4.3505 -1.93175,0.2812 -5.49077,0.4218 -10.67711,0.4218 -5.174664,0 -8.733702,-0.1406 -10.677114,-0.4218 -2.798054,-0.4087 -4.513181,-1.859 -5.145375,-4.3505 -0.433173,-1.7121 -0.64976,-4.6062 -0.64976,-8.682 0,-4.1014 0.216587,-7.0018 0.64976,-8.7012 0.632194,-2.4915 2.347321,-3.9416 5.145375,-4.3505 1.955125,-0.2811 5.584403,-0.4216 10.887854,-0.4217 m -0.491713,6.8038 c -3.664418,0 -5.888811,0.1086 -6.673197,0.3258 -0.9483,0.2683 -1.557084,0.8752 -1.826352,1.8207 -0.257564,0.9327 -0.386345,2.6513 -0.386337,5.1556 -8e-6,1.6227 0.07611,2.7917 0.228292,3.5072 0.292679,1.3288 1.176584,2.0892 2.651715,2.2809 1.08877,0.1533 3.18439,0.2299 6.286852,0.2299 3.10242,0 5.19805,-0.076 6.28685,-0.2299 1.4751,-0.1917 2.35316,-0.9521 2.63416,-2.2809 0.16387,-0.7283 0.24583,-1.8591 0.24585,-3.3923 -2e-5,-1.8782 -0.047,-3.2134 -0.14048,-4.0056 -0.16394,-1.316 -0.53857,-2.1913 -1.12392,-2.6257 -0.52685,-0.4088 -1.6332,-0.6579 -3.31903,-0.7474 -0.60881,-0.026 -2.23027,-0.038 -4.864403,-0.038" />
    <path
       inkscape:connector-curvature="0"
       id="path4618"
       style="font-style:normal;font-weight:normal;font-size:27.20816612px;line-height:125%;font-family:Sans;letter-spacing:7.22430801px;word-spacing:0px;fill:#555555;fill-opacity:1;stroke:none;stroke-width:0.32777828"
       d="m 121.53611,1016.0442 h 7.30539 v 12.0167 c 0.0351,2.7598 0.12292,4.5039 0.26342,5.2322 0.23413,1.2393 1.03023,1.9677 2.3883,2.1849 1.24096,0.2045 3.11999,0.3067 5.63709,0.3067 2.59901,0 4.42536,-0.083 5.47904,-0.2492 1.53364,-0.2556 2.38828,-1.2139 2.56392,-2.8749 0.14046,-1.3416 0.21069,-2.8748 0.21073,-4.5997 v -12.0167 h 7.30538 v 12.0167 c -0.082,4.1909 -0.20491,6.9316 -0.36879,8.2221 -0.2927,2.1721 -1.2527,3.7756 -2.88,4.8105 -1.20589,0.7539 -3.23125,1.2139 -6.07612,1.3799 -1.31125,0.076 -3.36002,0.1151 -6.14636,0.1151 -4.10929,0 -7.03027,-0.1278 -8.76294,-0.3833 -1.31125,-0.1917 -2.3532,-0.4537 -3.12587,-0.7859 -0.77269,-0.345 -1.42831,-0.8304 -1.96684,-1.4565 -0.73757,-0.8561 -1.21171,-1.9294 -1.42245,-3.2198 -0.23415,-1.4693 -0.35708,-3.2455 -0.36878,-5.3282 l -0.0351,-3.3539 v -12.0167" />
    <path
       inkscape:connector-curvature="0"
       id="path4620"
       style="font-style:normal;font-weight:normal;font-size:27.20816612px;line-height:125%;font-family:Sans;letter-spacing:7.22430801px;word-spacing:0px;fill:#555555;fill-opacity:1;stroke:none;stroke-width:0.32777828"
       d="m 158.32553,1016.0442 h 7.67417 v 26.161 h -7.67417 v -26.161" />
    <path
       inkscape:connector-curvature="0"
       id="path4622"
       style="font-style:normal;font-weight:normal;font-size:27.20816612px;line-height:125%;font-family:Sans;letter-spacing:7.22430801px;word-spacing:0px;fill:#555555;fill-opacity:1;stroke:none;stroke-width:0.32777828"
       d="m 194.53543,1032.1048 h 7.3054 c 0.0469,1.2777 0.0702,2.153 0.0703,2.6257 -3e-5,1.9039 -0.27514,3.4307 -0.82536,4.5806 -0.57369,1.2011 -1.66833,2.0379 -3.28391,2.5107 -1.76785,0.5238 -4.82346,0.7858 -9.16686,0.7858 -4.78832,0 -8.0137,-0.083 -9.67613,-0.2491 -1.54538,-0.1407 -2.76295,-0.3642 -3.6527,-0.6709 -0.88975,-0.3066 -1.62732,-0.7537 -2.2127,-1.3415 -0.78438,-0.7921 -1.28194,-1.8399 -1.49268,-3.1432 -0.23415,-1.367 -0.35121,-3.9992 -0.35121,-7.8962 0,-3.7437 0.0877,-6.2672 0.26341,-7.5704 0.25755,-1.9549 0.95414,-3.373 2.08976,-4.2547 0.86634,-0.6645 2.2478,-1.1372 4.14441,-1.4183 1.96682,-0.2811 5.49658,-0.4216 10.58931,-0.4216 3.03218,0 5.19217,0.07 6.48001,0.2108 1.9434,0.2045 3.35998,0.6133 4.24977,1.2266 1.10046,0.7539 1.79705,1.8463 2.08976,3.2773 0.21071,1.0221 0.31607,2.204 0.31611,3.5456 -4e-5,0.23 -0.006,0.7347 -0.0175,1.5141 h -7.3054 c -0.0234,-0.6389 -0.0469,-1.0733 -0.0703,-1.3033 -0.0936,-0.7793 -0.41564,-1.2713 -0.96587,-1.4757 -0.83125,-0.3066 -3.10247,-0.46 -6.81368,-0.46 -2.5288,0 -4.27319,0.076 -5.23318,0.2299 -1.17074,0.179 -1.89661,0.8753 -2.17758,2.0891 -0.22244,0.9839 -0.33366,2.5682 -0.33364,4.7531 -2e-5,2.2486 0.1112,3.8012 0.33364,4.6571 0.28097,1.1116 1.05366,1.757 2.31806,1.9358 1.03023,0.1407 2.83903,0.211 5.42637,0.211 2.79803,0 4.70633,-0.064 5.72488,-0.1918 0.95999,-0.1149 1.56878,-0.4918 1.82636,-1.1308 0.21071,-0.5366 0.32778,-1.4119 0.35121,-2.6257" />
    <path
       inkscape:connector-curvature="0"
       id="path4624"
       style="font-style:normal;font-weight:normal;font-size:27.20816612px;line-height:125%;font-family:Sans;letter-spacing:7.22430801px;word-spacing:0px;fill:#555555;fill-opacity:1;stroke:none;stroke-width:0.32777828"
       d="m 206.86234,1016.0442 h 7.30539 v 9.4869 h 4.00391 l 9.48296,-9.6595 h 11.16881 L 224.96776,1028.885 240,1042.2052 h -11.09857 l -10.72979,-10.0045 h -4.00391 v 10.0045 h -7.30539 v -26.161" />
    <rect
       style="display:inline;fill:#555555;fill-opacity:1;stroke:#ffffff;stroke-width:0.60116494;stroke-linejoin:round;stroke-miterlimit:4;stroke-dasharray:none;stroke-dashoffset:0;stroke-opacity:1"
       id="rect4121"
       width="5.3245506"
       height="21.942902"
       x="-760.87708"
       y="677.80005"
       transform="matrix(0.57686867,-0.81683691,0.79631106,0.60488734,0,0)" />
  </g>
</svg>
